PathFileType	4	(X/Y/Z)	7_coords_data.trc
DataRate	CameraRate	NumFrames	NumMarkers	Units	OrigDataRate	OrigDataStartFrame	OrigNumFrames
30.0	30.0	5	21	m	30.0	1	53
Frame#	Time	THUMB_TIP	THUMB_IP	THUMB_MCP	THUMB_CMC	INDEX_TIP	INDEX_DIP	INDEX_PIP	INDEX_MCP	MIDDLE_TIP	MIDDLE_DIP	MIDDLE_PIP	MIDDLE_MCP	RING_TIP	RING_DIP	RING_PIP	RING_MCP	PINKY_TIP	PINKY_DIP	PINKY_PIP	PINKY_MCP	WRIST
X1	Y1	Z1	X2	Y2	Z2	X3	Y3	Z3	X4	Y4	Z4	X5	Y5	Z5	X6	Y6	Z6	X7	Y7	Z7	X8	Y8	Z8	X9	Y9	Z9	X10	Y10	Z10	X11	Y11	Z11	X12	Y12	Z12	X13	Y13	Z13	X14	Y14	Z14	X15	Y15	Z15	X16	Y16	Z16	X17	Y17	Z17	X18	Y18	Z18	X19	Y19	Z19	X20	Y20	Z20	X21	Y21	Z21
0	0.0	-0.05319729995727539	-0.04992440032958984	0.986218994140625	-0.03940069961547851	-0.026974000930786134	0.9948309936523437	-0.036043598175048826	-0.010722999572753905	1.0148400268554687	-0.034222999572753904	0.021692399978637696	1.0326600341796874	-0.027093999862670897	0.016923999786376952	1.00352001953125	-0.009524439811706543	0.02076449966430664	0.9908319702148437	-0.010480500221252442	0.02317519950866699	0.9688460083007813	-0.045434799194335934	0.01591409969329834	0.9738660278320312	-0.015811400413513185	0.03524089813232422	1.0005399780273438	-0.011673199653625487	0.03689749908447266	0.9993079833984375	-0.008549880027770997	0.045376399993896484	0.9757260131835938	-0.04675310134887695	0.040580699920654294	0.9687109985351563	-0.033598300933837894	0.044260501861572266	1.011719970703125	-0.015559000015258789	0.05474589920043945	1.00652001953125	-0.010593199729919433	0.06513990020751953	0.9855469970703125	-0.04919390106201172	0.06128039932250977	0.981218017578125	0.0	0.0	0.0	-0.01668829917907715	0.06700630187988281	1.0164299926757812	-0.016782800674438478	0.07642019653320313	1.0004099731445313	-0.04712689971923828	0.07669219970703126	0.9921829833984375	-0.05354330062866211	0.047945499420166016	1.05
1	0.03333333333333333	-0.05259130096435547	-0.050067901611328125	0.9858889770507813	-0.039284801483154295	-0.027777000427246092	0.9942930297851562	-0.03519029998779297	-0.009046059608459472	1.0151300048828125	-0.0335261001586914	0.02337619972229004	1.032719970703125	-0.02566830062866211	0.016367000579833986	1.0015399780273437	-0.010183500289916993	0.02111319923400879	0.99031298828125	-0.009707159996032715	0.023472700119018555	0.9669660034179688	-0.04621640014648438	0.015879300117492674	0.9751179809570313	-0.022175300598144532	0.03202450180053711	1.0081400146484376	-0.011480600357055663	0.0383380012512207	1.0003099975585938	-0.0074441699981689455	0.0452504997253418	0.974718994140625	-0.04759230041503906	0.04042399978637695	0.9713560180664063	-0.02939389991760254	0.04570429992675781	1.0165599975585937	-0.01581079959869385	0.05407310104370117	1.0083800048828124	-0.010630100250244141	0.06382759857177735	0.9861580200195312	-0.04850019836425781	0.0612400016784668	0.9795789794921875	-0.032444900512695315	0.05957609939575195	1.0226199951171875	-0.019130599975585937	0.06712429809570312	1.016239990234375	-0.01765060043334961	0.07628209686279297	1.0008599853515625	-0.04714120101928711	0.07716609954833985	0.9927219848632812	-0.05434090042114258	0.046735401153564456	1.04831005859375
2	0.06666666666666667	-0.052638301849365236	-0.04906290054321289	0.9852670288085937	-0.03916220092773438	-0.02686759948730469	0.9935399780273437	-0.03499020004272461	-0.00839818000793457	1.014719970703125	-0.03338729858398438	0.023866800308227538	1.0326099853515625	-0.025312200546264648	0.01712820053100586	1.0013499755859374	-0.009929590225219727	0.02199799919128418	0.9900419921875	-0.009763899803161622	0.02449489974975586	0.9665819702148437	-0.046072399139404294	0.01658419990539551	0.97497802734375	-0.022128000259399414	0.032688899993896486	1.0081500244140624	-0.01129319953918457	0.039147598266601566	0.9999990234375	-0.007537390232086182	0.04617829895019531	0.97443798828125	-0.04761579895019531	0.04122880172729492	0.9714089965820313	-0.029376399993896483	0.0461869010925293	1.0165399780273439	-0.015793600082397462	0.05480009841918945	1.0080999755859374	-0.01071399974822998	0.06465529632568359	0.9862659912109375	-0.0486265983581543	0.061938301086425784	0.979708984375	-0.03218280029296875	0.059956100463867186	1.0229299926757813	-0.019200000762939453	0.06771779632568359	1.0160999755859375	-0.01791749954223633	0.07696040344238281	1.0009199829101563	-0.047369800567626956	0.07776409912109375	0.99302001953125	-0.05432680130004883	0.047001998901367185	1.048510009765625
3	0.1	-0.05248699951171875	-0.04847169876098633	0.9856279907226563	-0.039032901763916016	-0.026292900085449218	0.9937490234375	-0.03485720062255859	-0.007843609809875488	1.014989990234375	-0.033279399871826175	0.024309499740600586	1.0328900146484374	-0.024862899780273437	0.017730300903320312	1.0016699829101563	-0.009506409645080566	0.022682600021362305	0.9899819946289062	-0.009480310440063476	0.025120500564575196	0.9667310180664063	-0.04564300155639649	0.017030799865722656	0.9752650146484375	-0.021948699951171876	0.0332333984375	1.0082899780273438	-0.011046899795532226	0.03981589889526367	1.000239990234375	-0.00729049015045166	0.04679180145263672	0.97475	-0.0473572006225586	0.04165890121459961	0.9715780029296875	-0.029227100372314452	0.04670130157470703	1.0166900024414063	-0.01563379955291748	0.05534609985351562	1.0084199829101563	-0.01062399959564209	0.06535549926757812	0.9862930297851562	-0.04847650146484375	0.062433498382568356	0.9799459838867187	-0.03209400177001953	0.060459701538085935	1.0228300170898437	-0.019077699661254884	0.06824189758300782	1.016510009765625	-0.017877599716186524	0.07751339721679687	1.00127001953125	-0.04728919982910156	0.07820269775390624	0.993176025390625	-0.054343399047851564	0.04745100021362305	1.04875
4	0.13333333333333333	-0.052919700622558595	-0.04842770004272461	0.9862570190429687	-0.03933879852294922	-0.026244699478149416	0.9942490234375	-0.03492919921875	-0.00773429012298584	1.0153699951171875	-0.03322999954223633	0.024381500244140625	1.033219970703125	-0.02486490058898926	0.01783329963684082	1.00197998046875	-0.009665699958801269	0.022658700942993163	0.9900089721679688	-0.009900919914245606	0.025085100173950194	0.966614013671875	-0.046004798889160155	0.017062000274658203	0.9757050170898437	-0.021920900344848632	0.03321490097045898	1.0083900146484375	-0.011075699806213379	0.03981100082397461	1.00022998046875	-0.007638430118560791	0.046777301788330075	0.9745609741210938	-0.04771060180664063	0.04170270156860351	0.9720280151367188	-0.02921269989013672	0.046695098876953126	1.0169500122070312	-0.015663299560546875	0.05532490158081055	1.0085999755859374	-0.01077620029449463	0.06530020141601563	0.9867930297851563	-0.048782398223876956	0.062431800842285154	0.9804089965820313	-0.032324298858642575	0.06047650146484375	1.0233599853515625	-0.019050800323486328	0.06827459716796876	1.0167000122070313	-0.017954599380493163	0.07753450012207032	1.0014299926757813	-0.047454299926757815	0.07820320129394531	0.9935499877929688	-0.054034400939941406	0.04750630187988281	1.0490699462890625
